<svg width="32" height="32" viewBox="0 0 32 32" fill="none" xmlns="http://www.w3.org/2000/svg">
<path fill-rule="evenodd" clip-rule="evenodd" d="M5 0C2.23858 0 0 2.23858 0 5V27C0 29.7614 2.23858 32 5 32H27C29.7614 32 32 29.7614 32 27V5C32 2.23858 29.7614 0 27 0H5ZM11.7139 19.0137C11.4346 19.2858 11.0407 19.4219 10.5322 19.4219C9.9235 19.4219 9.47949 19.1963 9.2002 18.7451C8.9209 18.2939 8.78125 17.4847 8.78125 16.3174C8.78125 15.6514 8.80632 15.1286 8.85645 14.749C9.014 13.5531 9.56185 12.9551 10.5 12.9551C10.9941 12.9551 11.388 13.1162 11.6816 13.4385C11.9753 13.7607 12.1221 14.2227 12.1221 14.8242H15.5166C15.5166 13.3919 15.0726 12.2568 14.1846 11.4189C13.2965 10.5811 12.097 10.1621 10.5859 10.1621C9.46875 10.1621 8.50195 10.4056 7.68555 10.8926C6.86914 11.3724 6.24251 12.0635 5.80566 12.9658C5.37598 13.861 5.16113 14.8958 5.16113 16.0703V16.2207C5.16113 18.097 5.64811 19.5651 6.62207 20.625C7.59603 21.6849 8.92806 22.2148 10.6182 22.2148C12.0576 22.2148 13.2321 21.8066 14.1416 20.9902C15.0583 20.1738 15.5166 19.1283 15.5166 17.8535H12.1221C12.1292 18.3477 11.9932 18.7344 11.7139 19.0137ZM23.5195 10.377L21.6826 17.6924L19.8779 10.377H16.0537L19.8457 22H23.541L27.333 10.377H23.5195Z" fill="#F3FDFF"/>
</svg>
