<svg width="32" height="32" viewBox="0 0 32 32" fill="none" xmlns="http://www.w3.org/2000/svg">
<path fill-rule="evenodd" clip-rule="evenodd" d="M5 0C2.23858 0 0 2.23858 0 5V27C0 29.7614 2.23858 32 5 32H27C29.7614 32 32 29.7614 32 27V5C32 2.23858 29.7614 0 27 0H5ZM11.3809 19.2393C11.1445 19.361 10.8581 19.4219 10.5215 19.4219C10.1419 19.4219 9.83757 19.3431 9.6084 19.1855C9.37923 19.0208 9.20378 18.7988 9.08203 18.5195C8.96029 18.2331 8.87793 17.9036 8.83496 17.5312C8.79915 17.1517 8.78125 16.7471 8.78125 16.3174V16.0703C8.78125 15.6478 8.79915 15.2503 8.83496 14.8779C8.87793 14.5055 8.95671 14.1761 9.07129 13.8896C9.19303 13.596 9.36849 13.3669 9.59766 13.2021C9.82682 13.0374 10.1276 12.9551 10.5 12.9551C10.8724 12.9551 11.1768 13.041 11.4131 13.2129C11.6566 13.3776 11.8356 13.5996 11.9502 13.8789C12.0648 14.1582 12.1185 14.4733 12.1113 14.8242H15.5166C15.5238 13.8359 15.3161 12.9945 14.8936 12.2998C14.471 11.6051 13.8874 11.0752 13.1426 10.71C12.4049 10.3447 11.5527 10.1621 10.5859 10.1621C9.68359 10.1621 8.89225 10.3125 8.21191 10.6133C7.53874 10.9069 6.97298 11.3223 6.51465 11.8594C6.06348 12.3893 5.72331 13.016 5.49414 13.7393C5.27214 14.4554 5.16113 15.2324 5.16113 16.0703V16.3174C5.16113 17.1553 5.27214 17.9323 5.49414 18.6484C5.72331 19.3646 6.06348 19.9912 6.51465 20.5283C6.97298 21.0583 7.54232 21.4736 8.22266 21.7744C8.903 22.068 9.69792 22.2148 10.6074 22.2148C11.5384 22.2148 12.3727 22.0358 13.1104 21.6777C13.8551 21.3125 14.4424 20.804 14.8721 20.1523C15.3089 19.4935 15.5238 18.7272 15.5166 17.8535H12.1113C12.1185 18.1829 12.0576 18.4658 11.9287 18.7021C11.807 18.9313 11.6243 19.1104 11.3809 19.2393ZM21.2959 22H19.8672L16.0752 10.377H19.8994L21.7073 17.7032L23.541 10.377H27.3545L23.5518 22H22.1338H21.2959Z" fill="#043540"/>
</svg>
