<svg width="97" height="30" viewBox="0 0 97 30" fill="none" xmlns="http://www.w3.org/2000/svg">
<path d="M10.1562 12.0781L13.2852 19.9531L15.8984 13.4258C15.9531 13.2852 16.0156 13.1289 16.0859 12.957C16.1562 12.7773 16.2188 12.5977 16.2734 12.418C16.3281 12.2305 16.375 12.0547 16.4141 11.8906C16.4531 11.7188 16.4727 11.5664 16.4727 11.4336C16.4727 11.332 16.4648 11.25 16.4492 11.1875C16.4336 11.1172 16.418 11.0703 16.4023 11.0469V11H18.5117V11.0469C18.3711 11.1953 18.1992 11.4414 17.9961 11.7852C17.8008 12.1211 17.5664 12.6133 17.293 13.2617L13.1328 23.1641H12.4648L9.44141 15.8281L6.41797 23.1641H5.75L1.90625 13.8359C1.76562 13.4922 1.61328 13.1641 1.44922 12.8516C1.29297 12.5312 1.14062 12.2461 0.992188 11.9961C0.851562 11.7461 0.726562 11.5391 0.617188 11.375C0.507812 11.2031 0.433594 11.0938 0.394531 11.0469V11H3.51172V11.0469C3.49609 11.0859 3.48438 11.1445 3.47656 11.2227C3.46875 11.3008 3.46484 11.3711 3.46484 11.4336C3.46484 11.6758 3.5 11.9453 3.57031 12.2422C3.64844 12.5312 3.77344 12.8945 3.94531 13.332L6.55859 19.9531L9.71094 12.0781H10.1562ZM25.5195 23.2109C24.6523 23.2109 23.8398 23.0742 23.082 22.8008C22.3242 22.5273 21.6641 22.1289 21.1016 21.6055C20.5391 21.0742 20.0938 20.4219 19.7656 19.6484C19.4453 18.8672 19.2852 17.9766 19.2852 16.9766C19.2852 16.0938 19.4336 15.2773 19.7305 14.5273C20.0273 13.7695 20.4375 13.1133 20.9609 12.5586C21.4844 12.0039 22.0938 11.5703 22.7891 11.2578C23.4922 10.9453 24.25 10.7891 25.0625 10.7891C25.8672 10.7891 26.6133 10.9297 27.3008 11.2109C27.9883 11.4844 28.582 11.8867 29.082 12.418C29.5898 12.9414 29.9883 13.5938 30.2773 14.375C30.5742 15.1484 30.7344 16.0312 30.7578 17.0234C29.875 17.0078 28.9922 16.9961 28.1094 16.9883C27.2266 16.9805 26.3086 16.9766 25.3555 16.9766C24.6758 16.9766 24.0117 16.9805 23.3633 16.9883C22.7227 16.9961 22.1445 17.0078 21.6289 17.0234C21.6758 17.8359 21.8008 18.5703 22.0039 19.2266C22.2148 19.8828 22.5 20.4453 22.8594 20.9141C23.2266 21.375 23.668 21.7305 24.1836 21.9805C24.707 22.2305 25.2969 22.3555 25.9531 22.3555C26.4062 22.3555 26.832 22.3047 27.2305 22.2031C27.6367 22.0938 28.0039 21.9453 28.332 21.7578C28.6602 21.5703 28.9531 21.3516 29.2109 21.1016C29.4688 20.8438 29.6875 20.5664 29.8672 20.2695L30.0078 20.3398L29.1406 22.4258C28.7188 22.6445 28.2148 22.832 27.6289 22.9883C27.043 23.1367 26.3398 23.2109 25.5195 23.2109ZM23.9609 16.0625C24.7422 16.0625 25.5234 16.0625 26.3047 16.0625C27.0938 16.0547 27.8086 16.0391 28.4492 16.0156C28.3789 15.3359 28.2461 14.7266 28.0508 14.1875C27.8555 13.6484 27.6055 13.1914 27.3008 12.8164C26.9961 12.4414 26.6367 12.1523 26.2227 11.9492C25.8086 11.7461 25.3516 11.6445 24.8516 11.6445C24.3984 11.6445 23.9805 11.7461 23.5977 11.9492C23.2227 12.1445 22.8945 12.4297 22.6133 12.8047C22.332 13.1797 22.1055 13.6406 21.9336 14.1875C21.7617 14.7266 21.6602 15.3438 21.6289 16.0391C21.9805 16.0547 22.3516 16.0625 22.7422 16.0625C23.1328 16.0625 23.5391 16.0625 23.9609 16.0625ZM33.3477 15.582C33.3477 14.918 33.3359 14.3398 33.3125 13.8477C33.2969 13.3477 33.2734 12.918 33.2422 12.5586C33.2188 12.1992 33.1836 11.8984 33.1367 11.6562C33.0977 11.4141 33.0547 11.2109 33.0078 11.0469V11H35.7148V11.0469C35.668 11.2109 35.625 11.4141 35.5859 11.6562C35.5469 11.8984 35.5117 12.1992 35.4805 12.5586C35.4492 12.918 35.4258 13.3477 35.4102 13.8477C35.3945 14.3398 35.3867 14.918 35.3867 15.582V18.418C35.3867 19.082 35.3945 19.6641 35.4102 20.1641C35.4258 20.6562 35.4492 21.082 35.4805 21.4414C35.5117 21.8008 35.5469 22.1016 35.5859 22.3438C35.625 22.5859 35.668 22.7891 35.7148 22.9531V23H33.0078V22.9531C33.0547 22.7891 33.0977 22.5859 33.1367 22.3438C33.1836 22.1016 33.2188 21.8008 33.2422 21.4414C33.2734 21.082 33.2969 20.6562 33.3125 20.1641C33.3359 19.6641 33.3477 19.082 33.3477 18.418V15.582ZM33.1016 7.44922C33.1016 7.27734 33.1328 7.11719 33.1953 6.96875C33.2656 6.8125 33.3555 6.67969 33.4648 6.57031C33.5742 6.45312 33.7031 6.36328 33.8516 6.30078C34.0078 6.23047 34.1758 6.19531 34.3555 6.19531C34.5352 6.19531 34.6992 6.23047 34.8477 6.30078C35.0039 6.36328 35.1367 6.45312 35.2461 6.57031C35.3633 6.67969 35.4531 6.8125 35.5156 6.96875C35.5859 7.11719 35.6211 7.27734 35.6211 7.44922C35.6211 7.80859 35.5 8.10938 35.2578 8.35156C35.0156 8.59375 34.7148 8.71484 34.3555 8.71484C34.1758 8.71484 34.0078 8.68359 33.8516 8.62109C33.7031 8.55078 33.5742 8.46094 33.4648 8.35156C33.3555 8.23438 33.2656 8.10156 33.1953 7.95312C33.1328 7.79688 33.1016 7.62891 33.1016 7.44922ZM39.0664 10.0625C39.0664 9.39844 39.0547 8.82031 39.0312 8.32812C39.0156 7.82812 38.9922 7.39844 38.9609 7.03906C38.9375 6.67969 38.9023 6.37891 38.8555 6.13672C38.8164 5.89453 38.7734 5.69141 38.7266 5.52734V5.48047H41.4336V5.52734C41.3867 5.69141 41.3438 5.89453 41.3047 6.13672C41.2656 6.37891 41.2305 6.67969 41.1992 7.03906C41.168 7.39844 41.1445 7.82812 41.1289 8.32812C41.1133 8.82031 41.1055 9.39844 41.1055 10.0625V15.8984L44.9375 12.4648C45.6094 11.8789 45.9453 11.3906 45.9453 11H48.6641V11.0469C48.4609 11.1094 48.2656 11.1914 48.0781 11.293C47.8984 11.3867 47.7148 11.5 47.5273 11.6328C47.3477 11.7656 47.1562 11.918 46.9531 12.0898C46.7578 12.2539 46.543 12.4414 46.3086 12.6523L42.875 15.7812L47.5859 21.3477C47.7266 21.5195 47.8789 21.6953 48.043 21.875C48.207 22.0469 48.3711 22.207 48.5352 22.3555C48.6992 22.5039 48.8594 22.6328 49.0156 22.7422C49.1719 22.8516 49.3164 22.9219 49.4492 22.9531V23H46.0508C46.0508 22.7969 45.9961 22.5859 45.8867 22.3672C45.7852 22.1484 45.5977 21.8711 45.3242 21.5352L41.1055 16.5195V18.418C41.1055 19.082 41.1133 19.6641 41.1289 20.1641C41.1445 20.6562 41.168 21.082 41.1992 21.4414C41.2305 21.8008 41.2656 22.1016 41.3047 22.3438C41.3438 22.5859 41.3867 22.7891 41.4336 22.9531V23H38.7266V22.9531C38.7734 22.7891 38.8164 22.5859 38.8555 22.3438C38.9023 22.1016 38.9375 21.8008 38.9609 21.4414C38.9922 21.082 39.0156 20.6562 39.0312 20.1641C39.0547 19.6641 39.0664 19.082 39.0664 18.418V10.0625ZM55.7539 23.2109C54.8867 23.2109 54.0742 23.0742 53.3164 22.8008C52.5586 22.5273 51.8984 22.1289 51.3359 21.6055C50.7734 21.0742 50.3281 20.4219 50 19.6484C49.6797 18.8672 49.5195 17.9766 49.5195 16.9766C49.5195 16.0938 49.668 15.2773 49.9648 14.5273C50.2617 13.7695 50.6719 13.1133 51.1953 12.5586C51.7188 12.0039 52.3281 11.5703 53.0234 11.2578C53.7266 10.9453 54.4844 10.7891 55.2969 10.7891C56.1016 10.7891 56.8477 10.9297 57.5352 11.2109C58.2227 11.4844 58.8164 11.8867 59.3164 12.418C59.8242 12.9414 60.2227 13.5938 60.5117 14.375C60.8086 15.1484 60.9688 16.0312 60.9922 17.0234C60.1094 17.0078 59.2266 16.9961 58.3438 16.9883C57.4609 16.9805 56.543 16.9766 55.5898 16.9766C54.9102 16.9766 54.2461 16.9805 53.5977 16.9883C52.957 16.9961 52.3789 17.0078 51.8633 17.0234C51.9102 17.8359 52.0352 18.5703 52.2383 19.2266C52.4492 19.8828 52.7344 20.4453 53.0938 20.9141C53.4609 21.375 53.9023 21.7305 54.418 21.9805C54.9414 22.2305 55.5312 22.3555 56.1875 22.3555C56.6406 22.3555 57.0664 22.3047 57.4648 22.2031C57.8711 22.0938 58.2383 21.9453 58.5664 21.7578C58.8945 21.5703 59.1875 21.3516 59.4453 21.1016C59.7031 20.8438 59.9219 20.5664 60.1016 20.2695L60.2422 20.3398L59.375 22.4258C58.9531 22.6445 58.4492 22.832 57.8633 22.9883C57.2773 23.1367 56.5742 23.2109 55.7539 23.2109ZM54.1953 16.0625C54.9766 16.0625 55.7578 16.0625 56.5391 16.0625C57.3281 16.0547 58.043 16.0391 58.6836 16.0156C58.6133 15.3359 58.4805 14.7266 58.2852 14.1875C58.0898 13.6484 57.8398 13.1914 57.5352 12.8164C57.2305 12.4414 56.8711 12.1523 56.457 11.9492C56.043 11.7461 55.5859 11.6445 55.0859 11.6445C54.6328 11.6445 54.2148 11.7461 53.832 11.9492C53.457 12.1445 53.1289 12.4297 52.8477 12.8047C52.5664 13.1797 52.3398 13.6406 52.168 14.1875C51.9961 14.7266 51.8945 15.3438 51.8633 16.0391C52.2148 16.0547 52.5859 16.0625 52.9766 16.0625C53.3672 16.0625 53.7734 16.0625 54.1953 16.0625ZM79.0742 22.7891C78.8633 22.8516 78.6406 22.9102 78.4062 22.9648C78.1719 23.0195 77.9297 23.0625 77.6797 23.0938C77.4375 23.1328 77.1953 23.1602 76.9531 23.1758C76.7109 23.1992 76.4844 23.2109 76.2734 23.2109C75.3281 23.2109 74.4531 23.0742 73.6484 22.8008C72.8516 22.5195 72.1602 22.1133 71.5742 21.582C70.9961 21.0508 70.543 20.3984 70.2148 19.625C69.8867 18.8516 69.7227 17.9688 69.7227 16.9766C69.7227 16.0938 69.8906 15.2773 70.2266 14.5273C70.5703 13.7695 71.043 13.1133 71.6445 12.5586C72.2539 12.0039 72.9688 11.5703 73.7891 11.2578C74.6094 10.9453 75.5 10.7891 76.4609 10.7891C76.875 10.7891 77.3125 10.8164 77.7734 10.8711C78.2422 10.9258 78.668 11 79.0508 11.0938C79.418 11.1797 79.7969 11.2734 80.1875 11.375C80.5781 11.4688 80.9453 11.582 81.2891 11.7148C81.2578 11.832 81.2305 12.0312 81.207 12.3125C81.1914 12.5859 81.1758 12.8828 81.1602 13.2031C81.1445 13.5234 81.1328 13.8398 81.125 14.1523C81.1172 14.457 81.1133 14.7031 81.1133 14.8906V24.418C81.1133 25.082 81.1211 25.6602 81.1367 26.1523C81.1602 26.6523 81.1836 27.082 81.207 27.4414C81.2383 27.8008 81.2734 28.1016 81.3125 28.3438C81.3594 28.5859 81.4062 28.7891 81.4531 28.9531V29H78.7461V28.9531C78.793 28.7891 78.8359 28.5859 78.875 28.3438C78.9141 28.1016 78.9492 27.8008 78.9805 27.4414C79.0117 27.082 79.0352 26.6523 79.0508 26.1523C79.0664 25.6602 79.0742 25.082 79.0742 24.418V22.7891ZM79.0742 15.0781C79.0742 14.4297 79.0664 13.8984 79.0508 13.4844C79.043 13.0703 79.0273 12.7305 79.0039 12.4648C78.6055 12.2148 78.1641 12.0156 77.6797 11.8672C77.1953 11.7188 76.6953 11.6445 76.1797 11.6445C75.5703 11.6445 75.0156 11.7539 74.5156 11.9727C74.0156 12.1836 73.5859 12.4922 73.2266 12.8984C72.8672 13.3047 72.5859 13.8047 72.3828 14.3984C72.1875 14.9844 72.0898 15.6523 72.0898 16.4023C72.0898 17.2461 72.1836 18.0312 72.3711 18.7578C72.5664 19.4844 72.8516 20.1172 73.2266 20.6562C73.6094 21.1875 74.0859 21.6055 74.6562 21.9102C75.2344 22.207 75.9102 22.3555 76.6836 22.3555C77.1055 22.3555 77.5195 22.2969 77.9258 22.1797C78.3398 22.0547 78.7227 21.8789 79.0742 21.6523V15.0781ZM86.6914 18.8984C86.6914 19.9297 86.8945 20.6875 87.3008 21.1719C87.7148 21.6562 88.2695 21.8984 88.9648 21.8984C89.2148 21.8984 89.4961 21.8477 89.8086 21.7461C90.1211 21.6367 90.4414 21.4961 90.7695 21.3242C91.1055 21.1445 91.4375 20.9375 91.7656 20.7031C92.1016 20.4688 92.4102 20.2188 92.6914 19.9531C92.707 19.7266 92.7148 19.4883 92.7148 19.2383C92.7148 18.9805 92.7148 18.707 92.7148 18.418V15.582C92.7148 14.918 92.7031 14.3398 92.6797 13.8477C92.6641 13.3477 92.6406 12.918 92.6094 12.5586C92.5859 12.1992 92.5508 11.8984 92.5039 11.6562C92.4648 11.4141 92.4219 11.2109 92.375 11.0469V11H95.082V11.0469C95.0352 11.2109 94.9922 11.4141 94.9531 11.6562C94.9141 11.8984 94.8789 12.1992 94.8477 12.5586C94.8164 12.918 94.793 13.3477 94.7773 13.8477C94.7617 14.3398 94.7539 14.918 94.7539 15.582V18.418C94.7539 19.082 94.7617 19.6641 94.7773 20.1641C94.793 20.6562 94.8164 21.082 94.8477 21.4414C94.8789 21.8008 94.9141 22.1016 94.9531 22.3438C94.9922 22.5859 95.0352 22.7891 95.082 22.9531V23H92.375V22.9531C92.4219 22.7578 92.4688 22.5078 92.5156 22.2031C92.5703 21.8984 92.6094 21.5 92.6328 21.0078C92.3125 21.2812 91.9648 21.5508 91.5898 21.8164C91.2227 22.082 90.8359 22.3203 90.4297 22.5312C90.0312 22.7422 89.625 22.9102 89.2109 23.0352C88.8047 23.168 88.4023 23.2344 88.0039 23.2344C87.3945 23.2344 86.875 23.1289 86.4453 22.918C86.0234 22.707 85.6758 22.4297 85.4023 22.0859C85.1367 21.7422 84.9414 21.3516 84.8164 20.9141C84.6992 20.4766 84.6406 20.0273 84.6406 19.5664V15.582C84.6406 14.918 84.6328 14.3398 84.6172 13.8477C84.6016 13.3477 84.5781 12.918 84.5469 12.5586C84.5156 12.1992 84.4805 11.8984 84.4414 11.6562C84.4023 11.4141 84.3594 11.2109 84.3125 11.0469V11H87.0195V11.0469C86.9727 11.2109 86.9297 11.4141 86.8906 11.6562C86.8516 11.8984 86.8164 12.1992 86.7852 12.5586C86.7539 12.918 86.7305 13.3477 86.7148 13.8477C86.6992 14.3398 86.6914 14.918 86.6914 15.582V18.8984Z" fill="#F3FDFF"/>
<line x1="3" y1="27.5" x2="76" y2="27.5" stroke="#F3FDFF"/>
<line x1="84" y1="27.5" x2="94" y2="27.5" stroke="#F3FDFF"/>
</svg>
